<svg xmlns="http://www.w3.org/2000/svg" enable-background="new 0 0 24 24" viewBox="0 0 24 24" id="mongodb"><path fill="#FFF" d="M11.464,19.817c-0.718-0.833,0.115-35.344,2.701-0.115c0,0-0.891,0.445-1.049,1.207C12.944,21.656,12.542,20.032,11.464,19.817z"></path><path fill="#A6A385" d="M11.464,19.817c-0.718-0.833,0.115-35.344,2.701-0.115c0,0-0.891,0.445-1.049,1.207C12.944,21.656,12.542,20.032,11.464,19.817z"></path><path fill="#FFF" d="M13.375,20.334c0,0,5.158-3.391,3.951-10.445c-1.164-5.129-3.908-6.81-4.21-7.457c-0.33-0.46-0.647-1.264-0.647-1.264l0.216,14.267C12.686,15.449,12.24,19.802,13.375,20.334L13.375,20.334z"></path><path fill="#499D4A" d="M13.375,20.334c0,0,5.158-3.391,3.951-10.445c-1.164-5.129-3.908-6.81-4.21-7.457c-0.33-0.46-0.647-1.264-0.647-1.264l0.216,14.267C12.686,15.449,12.24,19.802,13.375,20.334L13.375,20.334z"></path><path fill="#FFF" d="M12.169,20.521c0,0-4.842-3.305-4.555-9.123c0.273-5.819,3.692-8.678,4.353-9.195c0.431-0.46,0.445-0.632,0.474-1.092c0.302,0.647,0.244,9.67,0.287,10.733C12.858,15.937,12.499,19.745,12.169,20.521z"></path><path fill="#58AA50" d="M12.169,20.521c0,0-4.842-3.305-4.555-9.123c0.273-5.819,3.692-8.678,4.353-9.195c0.431-0.46,0.445-0.632,0.474-1.092c0.302,0.647,0.244,9.67,0.287,10.733C12.858,15.937,12.499,19.745,12.169,20.521z"></path><path d="M12.986,24c-0.085,0-0.17-0.015-0.251-0.043l-0.568-0.202c-0.305-0.108-0.506-0.4-0.499-0.723c0.008-0.384-0.022-1.451-0.237-2.139c-0.428-0.354-1.322-1.161-2.196-2.389c-0.32-0.449-0.613-0.922-0.869-1.402c-0.803-1.509-1.256-3.115-1.348-4.776c-0.021-0.382-0.023-0.765-0.005-1.159c0.172-3.843,1.672-7.339,4.115-9.591c0.345-0.317,0.515-0.6,0.568-0.942c0.056-0.35,0.347-0.613,0.699-0.633c0.368-0.023,0.672,0.21,0.766,0.551c0.102,0.369,0.286,0.77,0.508,1.099c0.026,0.039,0.049,0.08,0.067,0.123c0.032,0.054,0.224,0.264,0.377,0.432c0.905,0.996,2.79,3.067,3.694,7.298c0.929,5.757-1.865,9.302-3.157,10.597c-0.017,0.021-0.035,0.044-0.045,0.055c-0.322,0.315-0.582,0.527-0.727,0.641c-0.059,0.085-0.096,0.164-0.111,0.239c-0.104,0.489-0.075,1.585-0.033,2.161c0.019,0.253-0.092,0.498-0.294,0.651C13.309,23.947,13.148,24,12.986,24z M12.39,2.435C12.312,2.518,12.231,2.6,12.144,2.68c-2.154,1.985-3.479,5.104-3.633,8.557c-0.017,0.345-0.014,0.677,0.005,1.008c0.079,1.441,0.475,2.839,1.174,4.153c0.226,0.424,0.483,0.84,0.766,1.236c0.928,1.303,1.886,2.072,2.068,2.213c0.041,0.032,0.079,0.068,0.112,0.108c0.036-0.054,0.075-0.106,0.117-0.159c0.04-0.051,0.087-0.096,0.138-0.134c0.081-0.061,0.312-0.238,0.594-0.508c0.023-0.029,0.051-0.062,0.071-0.082c1.377-1.364,3.569-4.386,2.778-9.294c-0.812-3.796-2.45-5.597-3.33-6.563c-0.29-0.318-0.491-0.539-0.61-0.774C12.392,2.438,12.391,2.437,12.39,2.435z"></path></svg>